HIERARCHY
ROOT mixamorig:Hips
{
  OFFSET 0.000000 0.000000 0.000000
  CHANNELS 6 Xposition Yposition Zposition Xrotation Yrotation Zrotation
  JOINT mixamorig:Spine
  {
    OFFSET 0.391229 23.748969 -6.654046
    CHANNELS 3 Xrotation Yrotation Zrotation
    JOINT mixamorig:Spine2
    {
      OFFSET 0.391229 23.748969 -6.654046
      CHANNELS 3 Xrotation Yrotation Zrotation
      JOINT mixamorig:Neck
      {
        OFFSET 0.000000 3.197322 0.000000
        CHANNELS 3 Xrotation Yrotation Zrotation
        JOINT mixamorig:Head
        {
          OFFSET 0.000000 10.000000 0.000000
          CHANNELS 3 Xrotation Yrotation Zrotation
          End Site
          {
            OFFSET 0.000000 3.000000 0.000000
          }
        }
      }
      JOINT mixamorig:LeftShoulder
      {
        OFFSET 16.111384 1.874518 -2.260760
        CHANNELS 3 Xrotation Yrotation Zrotation
        JOINT mixamorig:LeftArm
        {
          OFFSET 10.000000 -2.000000 0.000000
          CHANNELS 3 Xrotation Yrotation Zrotation
          JOINT mixamorig:LeftForeArm
          {
            OFFSET 24.544675 0.000000 0.000000
            CHANNELS 3 Xrotation Yrotation Zrotation
            JOINT mixamorig:LeftHand
            {
              OFFSET 25.104951 0.000000 0.000000
              CHANNELS 3 Xrotation Yrotation Zrotation
              End Site
              {
                OFFSET 7.531485 0.000000 0.000000
              }
            }
          }
        }
      }
      JOINT mixamorig:RightShoulder
      {
        OFFSET -16.111384 1.874518 2.260760
        CHANNELS 3 Xrotation Yrotation Zrotation
        JOINT mixamorig:RightArm
        {
          OFFSET -10.000000 -2.000000 0.000000
          CHANNELS 3 Xrotation Yrotation Zrotation
          JOINT mixamorig:RightForeArm
          {
            OFFSET -24.544675 0.000000 0.000000
            CHANNELS 3 Xrotation Yrotation Zrotation
            JOINT mixamorig:RightHand
            {
              OFFSET -25.104951 0.000000 0.000000
              CHANNELS 3 Xrotation Yrotation Zrotation
              End Site
              {
                OFFSET -7.531485 0.000000 0.000000
              }
            }
          }
        }
      }
    }
  }
  JOINT mixamorig:LeftUpLeg
  {
    OFFSET 8.635911 0.170833 1.127908
    CHANNELS 3 Xrotation Yrotation Zrotation
    JOINT mixamorig:LeftLeg
    {
      OFFSET 6.997395 -36.028311 -8.791602
      CHANNELS 3 Xrotation Yrotation Zrotation
      JOINT mixamorig:LeftFoot
      {
        OFFSET 3.686508 -40.421684 12.320321
        CHANNELS 3 Xrotation Yrotation Zrotation
        JOINT mixamorig:LeftToeBase
        {
          OFFSET 3.864903 -5.928231 -8.540897
          CHANNELS 3 Xrotation Yrotation Zrotation
          End Site
          {
            OFFSET 1.159471 -1.778469 -2.562269
          }
        }
      }
    }
  }
  JOINT mixamorig:RightUpLeg
  {
    OFFSET -8.635911 -0.170833 -1.127908
    CHANNELS 3 Xrotation Yrotation Zrotation
    JOINT mixamorig:RightLeg
    {
      OFFSET -2.459540 -37.604333 2.039564
      CHANNELS 3 Xrotation Yrotation Zrotation
      JOINT mixamorig:RightFoot
      {
        OFFSET -2.969057 -39.552203 15.036660
        CHANNELS 3 Xrotation Yrotation Zrotation
        JOINT mixamorig:RightToeBase
        {
          OFFSET -8.393352 -1.096435 -7.167831
          CHANNELS 3 Xrotation Yrotation Zrotation
          End Site
          {
            OFFSET -2.518006 -0.328930 -2.150349
          }
        }
      }
    }
  }
}
MOTION
Frames: 9
Frame Time: 0.041667
-7.557181 0.160537 0.000000 14.844597 -1.261948 -7.086268 -0.011379 0.016435 0.057965 -15.562810 5.599157 7.137002 -7.096919 -7.032830 5.182006 -7.541973 -6.434719 6.065196 0.000000 0.000000 0.000000 -0.234740 41.402093 -0.668720 5.161614 35.281173 12.139233 0.000000 0.000000 0.000000 0.000000 0.000000 0.000000 -28.362156 -31.973322 82.615934 -167.697247 -49.746809 174.615264 0.000000 0.000000 0.000000 10.072028 -1.909352 11.593785 -9.827707 3.845370 11.934967 8.769534 24.960248 -10.131708 0.000000 0.000000 0.000000 -24.241701 -1.013487 -9.634678 -6.947767 4.131883 7.904230 -9.559921 -5.137842 11.921630 0.000000 0.000000 0.000000
-7.425508 0.157739 0.000000 14.930818 -1.346716 -7.703883 -0.007299 0.016570 0.058696 -15.601027 3.203764 7.742131 -7.762061 -7.420236 4.807624 -8.166418 -6.828453 5.822501 0.000000 0.000000 0.000000 -5.412839 40.372527 -16.136519 23.538476 40.727299 49.951537 0.000000 0.000000 0.000000 0.000000 0.000000 0.000000 -31.797282 -33.049043 87.654947 -149.560232 -45.009946 167.301909 0.000000 0.000000 0.000000 10.678368 -2.051381 12.186211 -9.869460 3.825196 11.880859 10.387041 24.702910 -8.982727 0.000000 0.000000 0.000000 -26.063900 -1.338024 -10.661214 -7.399323 3.686587 6.834551 -7.843313 -6.438531 10.033094 0.000000 0.000000 0.000000
-7.585883 0.150846 0.000000 14.986720 -1.392885 -8.059353 0.026961 0.016357 0.060021 -15.656536 -0.285936 8.073615 -8.000439 -7.069074 4.311573 -8.328243 -6.533033 5.313641 0.000000 0.000000 0.000000 -12.350304 33.737128 -40.618891 58.643643 40.045477 108.032218 0.000000 0.000000 0.000000 0.000000 0.000000 0.000000 -32.145124 -32.932146 88.516695 -141.255637 -40.964341 165.135726 0.000000 0.000000 0.000000 9.713666 -2.170782 12.301985 -9.901593 4.172512 12.756264 5.315323 25.424225 -12.656144 0.000000 0.000000 0.000000 -22.146315 -1.184103 -10.404264 -12.768560 3.947585 5.774664 -8.908466 -0.243076 10.618527 0.000000 0.000000 0.000000
-8.061891 0.138619 0.000000 15.000000 -1.419955 -8.292644 0.126421 0.015424 0.062752 -15.709402 -3.609097 8.263246 -8.562029 -7.485997 3.585278 -8.783965 -7.036261 4.727387 0.000000 0.000000 0.000000 -16.506587 27.711748 -60.692812 95.127638 35.435102 146.121635 0.000000 0.000000 0.000000 0.000000 0.000000 0.000000 -30.446561 -32.274942 86.419009 -143.739951 -39.921292 166.648727 0.000000 0.000000 0.000000 8.913574 -2.175726 12.094995 -9.191273 4.483210 13.616984 -0.920334 26.646130 -17.576445 0.000000 0.000000 0.000000 -14.698147 -0.811999 -9.682795 -22.130327 4.946768 4.997074 -12.835384 4.907052 14.706313 0.000000 0.000000 0.000000
-9.142541 0.126976 0.000000 15.000000 -1.383555 -8.088172 0.257922 0.014129 0.066157 -15.728347 -4.795533 8.032361 -9.267342 -8.941143 3.332721 -9.433187 -8.522536 4.791175 0.000000 0.000000 0.000000 -19.850513 26.341370 -73.661251 126.305721 39.214063 160.650851 0.000000 0.000000 0.000000 0.000000 0.000000 0.000000 -26.973267 -30.090859 83.399495 -163.629823 -46.651120 172.985641 0.000000 0.000000 0.000000 7.394647 -1.984868 11.020381 -8.409652 4.988372 15.025485 -8.889773 24.759425 -22.206304 0.000000 0.000000 0.000000 -14.515315 -0.790758 -9.596541 -21.640464 5.462613 5.963286 -12.948135 6.109182 14.693126 0.000000 0.000000 0.000000
-10.932879 0.122218 0.000000 15.000000 -1.315300 -7.628070 0.319166 0.013459 0.067511 -15.649770 0.128535 7.614979 -9.320288 -8.902593 3.500623 -9.484757 -8.472181 4.979987 0.000000 0.000000 0.000000 -19.647054 24.185464 -77.837231 142.793738 50.191014 162.015974 0.000000 0.000000 0.000000 0.000000 0.000000 0.000000 -22.777267 -26.354459 81.213801 -141.874327 -55.771592 146.947530 0.000000 0.000000 0.000000 4.619058 -1.795610 9.457893 -7.966865 5.713467 16.946008 -15.924032 22.824406 -26.232435 0.000000 0.000000 0.000000 -16.089995 -0.753971 -9.239708 -17.916666 5.180390 6.499208 -10.854833 7.030957 12.012344 0.000000 0.000000 0.000000
-12.944076 0.122832 0.000000 15.000000 -1.203774 -6.835491 0.313712 0.013403 0.066977 -15.538935 7.025084 6.799288 -7.575241 -7.105082 4.787116 -7.893151 -6.599215 5.814118 0.000000 0.000000 0.000000 -17.415868 22.187255 -75.822669 135.999179 52.018327 157.465791 0.000000 0.000000 0.000000 0.000000 0.000000 0.000000 -20.550399 -25.734518 76.871199 -31.616169 -59.126804 29.494138 0.000000 0.000000 0.000000 3.199938 -1.419855 7.486682 -9.961720 6.271884 17.994585 -18.807559 20.084634 -26.475931 0.000000 0.000000 0.000000 -15.921150 -0.730260 -9.130384 -15.137124 4.983292 6.986181 -9.021012 6.173133 9.920601 0.000000 0.000000 0.000000
-14.567687 0.125047 0.000000 15.000000 -0.960388 -5.077448 0.246808 0.013756 0.064130 -15.410863 14.737946 4.955260 -4.200787 -4.431825 6.598688 -4.625796 -3.952151 6.953623 0.000000 0.000000 0.000000 -14.841162 20.501836 -71.218269 124.025201 54.435231 149.177730 0.000000 0.000000 0.000000 0.000000 0.000000 0.000000 -21.745117 -26.805709 77.640068 143.099373 -56.860055 -146.324923 0.000000 0.000000 0.000000 2.186776 -0.610042 3.949069 -12.199595 6.658201 18.439401 -18.403423 17.196941 -23.871721 0.000000 0.000000 0.000000 -16.416766 -0.833814 -9.610064 -9.756622 4.627123 7.979900 -3.869409 4.622252 3.857859 0.000000 0.000000 0.000000
-15.756067 0.129846 0.000000 15.000000 -0.615954 -2.641730 0.359732 0.011931 0.064495 -15.281773 22.023841 2.440050 -2.734090 -2.463468 7.268649 -3.010513 -2.100449 7.382332 0.000000 0.000000 0.000000 -11.889240 18.146604 -65.762638 111.348123 56.429576 139.498144 0.000000 0.000000 0.000000 0.000000 0.000000 0.000000 -24.027015 -27.395790 82.130418 41.541383 -49.349146 -31.674420 0.000000 0.000000 0.000000 1.800626 0.628237 -1.152866 -14.479012 7.550771 20.012896 -19.427529 18.509690 -25.604799 0.000000 0.000000 0.000000 -17.533931 -0.916370 -9.907508 -4.975254 4.017538 8.374448 -2.728550 8.389031 1.868202 0.000000 0.000000 0.000000
